<?xml version="1.0" standalone="no"?>
<!DOCTYPE svg PUBLIC "-//W3C//DTD SVG 20010904//EN"
 "http://www.w3.org/TR/2001/REC-SVG-20010904/DTD/svg10.dtd">
<svg version="1.0" xmlns="http://www.w3.org/2000/svg"
 width="512.000000pt" height="512.000000pt" viewBox="0 0 512.000000 512.000000"
 preserveAspectRatio="xMidYMid meet">

<g transform="translate(0.000000,512.000000) scale(0.100000,-0.100000)"
fill="#5DB2C1" stroke="none">
<path d="M2375 5114 c-291 -29 -532 -85 -767 -180 -459 -184 -868 -511 -1156
-922 l-51 -74 -3 309 -3 310 -27 40 c-41 62 -90 88 -168 88 -78 0 -127 -26
-168 -88 l-27 -40 -3 -355 c-2 -292 0 -368 13 -431 40 -196 171 -362 353 -448
124 -58 183 -64 590 -61 l360 3 43 30 c117 83 117 247 0 330 l-43 30 -308 5
-308 5 63 95 c486 727 1368 1089 2228 915 750 -152 1377 -711 1616 -1441 119
-364 141 -711 70 -1089 -45 -235 -167 -544 -289 -729 -288 -439 -675 -745
-1142 -901 -256 -85 -511 -122 -768 -112 -168 8 -205 1 -260 -49 -96 -87 -88
-233 18 -308 36 -25 54 -30 149 -38 118 -11 360 -5 493 12 783 99 1475 555
1884 1240 175 292 291 632 338 990 16 123 16 497 0 620 -47 358 -163 698 -338
990 -224 375 -529 680 -904 904 -289 173 -634 291 -980 336 -87 12 -434 21
-505 14z"/>
<path d="M2492 4349 c-46 -14 -109 -80 -122 -128 -7 -27 -10 -305 -8 -883 l3
-843 32 -45 c55 -78 834 -847 875 -865 74 -30 173 -10 225 46 51 56 67 146 38
217 -11 25 -139 160 -395 417 l-380 380 -2 790 -3 790 -24 38 c-47 76 -151
113 -239 86z"/>
<path d="M210 2250 c-89 -16 -144 -72 -161 -165 -5 -30 0 -70 23 -160 45 -178
68 -214 163 -250 36 -14 52 -15 96 -6 99 21 159 94 159 190 0 61 -53 263 -81
308 -37 60 -123 96 -199 83z"/>
<path d="M575 1334 c-77 -40 -115 -101 -115 -184 0 -65 15 -93 112 -212 87
-106 134 -138 206 -138 139 0 235 131 190 261 -12 36 -123 182 -180 236 -18
17 -46 37 -61 42 -41 16 -117 13 -152 -5z"/>
<path d="M1335 686 c-73 -27 -135 -115 -135 -192 0 -12 5 -36 11 -55 24 -69
54 -96 190 -164 106 -53 139 -65 178 -65 140 0 239 147 183 272 -27 63 -51 82
-185 149 -129 65 -181 77 -242 55z"/>
</g>
</svg>
