<?xml version="1.0" standalone="yes"?>
<svg xmlns="http://www.w3.org/2000/svg" width="215" height="95">
<path style="fill:#f9dbb3; stroke:none;" d="M0 0L0 95L215 95L215 0L0 0z"/>
<path style="fill:#ddc4b0; stroke:none;" d="M41.6667 30.3333L42.3333 30.6667L41.6667 30.3333z"/>
<path style="fill:#d5ad8e; stroke:none;" d="M43 30L43 31L46 31L43 30z"/>
<path style="fill:#b98564; stroke:none;" d="M7 55L30 44C33.6555 31.7909 61.5368 35.4409 71 36.0895C94.9903 37.7339 117.428 46.3724 141 49.7145C160.411 52.4666 182.178 50.5687 201 55L206 52C201.575 47.8364 195.711 48.3829 190 47.8302C179.337 46.7984 168.665 45.98 158 44.8341C120.919 40.8499 81.5151 25.3812 44 30.7292C30.0315 32.7204 8.7469 38.0547 7 55z"/>
<path style="fill:#d5ad8e; stroke:none;" d="M64 30L64 31L69 31L64 30z"/>
<path style="fill:#ddc4b0; stroke:none;" d="M69 30L69 31L72 31L69 30M36 31L37 32L36 31z"/>
<path style="fill:#d5ad8e; stroke:none;" d="M37.6667 31.3333L38.3333 31.6667L37.6667 31.3333M31 35L31 36L64 32C54.4352 27.9864 40.5887 32.8071 31 35M76.6667 31.3333L77.3333 31.6667L76.6667 31.3333z"/>
<path style="fill:#ddc4b0; stroke:none;" d="M78.6667 31.3333L79.3333 31.6667L78.6667 31.3333z"/>
<path style="fill:#d5ad8e; stroke:none;" d="M32.6667 32.3333L33.3333 32.6667L32.6667 32.3333z"/>
<path style="fill:#ddc4b0; stroke:none;" d="M50 32L51 33L50 32M57 32L57 33L74 33L57 32z"/>
<path style="fill:#d5ad8e; stroke:none;" d="M71 33L71 34L81 34L71 33M83 32L83 33L86 33L83 32z"/>
<path style="fill:#ddc4b0; stroke:none;" d="M86.6667 32.3333L87.3333 32.6667L86.6667 32.3333M29 33L30 34L29 33z"/>
<path style="fill:#d5ad8e; stroke:none;" d="M30 33L31 34L30 33M90 33L90 34L93 34L90 33z"/>
<path style="fill:#ddc4b0; stroke:none;" d="M93 33L94 34L93 33M26 34L27 35L26 34z"/>
<path style="fill:#d5ad8e; stroke:none;" d="M27 34L28 35L27 34M82 34L82 35L93 36L82 34M97.6667 34.3333L98.3333 34.6667L97.6667 34.3333z"/>
<path style="fill:#ddc4b0; stroke:none;" d="M99.6667 34.3333L100.333 34.6667L99.6667 34.3333z"/>
<path style="fill:#d5ad8e; stroke:none;" d="M24 35L25 36L24 35z"/>
<path style="fill:#9c6755; stroke:none;" d="M30 44L8 54C13.5196 64.254 42.3788 55.159 53 56.1698C92.0223 59.8833 131.561 70.442 171 67.2315C182.465 66.2982 206.467 68.4101 207 52L201 55C194.951 53.2152 188.274 54.3423 182 53.9105C168.673 52.9933 155.245 51.5924 142 49.7145C117.839 46.2888 94.7027 36.6595 70 36.0147C60.9352 35.778 32.4343 31.2116 30 44z"/>
<path style="fill:#d5ad8e; stroke:none;" d="M103.667 35.3333L104.333 35.6667L103.667 35.3333z"/>
<path style="fill:#ddc4b0; stroke:none;" d="M105.667 35.3333L106.333 35.6667L105.667 35.3333z"/>
<path style="fill:#d5ad8e; stroke:none;" d="M22 36L23 37L22 36M109.667 36.3333L110.333 36.6667L109.667 36.3333z"/>
<path style="fill:#ddc4b0; stroke:none;" d="M111 36L112 37L111 36z"/>
<path style="fill:#d5ad8e; stroke:none;" d="M20 37L21 38L20 37M114 37L114 38L117 38L114 37z"/>
<path style="fill:#ddc4b0; stroke:none;" d="M117 37L118 38L117 37M18 38L19 39L18 38z"/>
<path style="fill:#d5ad8e; stroke:none;" d="M120.667 38.3333L121.333 38.6667L120.667 38.3333z"/>
<path style="fill:#ddc4b0; stroke:none;" d="M122 38L123 39L122 38z"/>
<path style="fill:#d5ad8e; stroke:none;" d="M17 39L18 40L17 39z"/>
<path style="fill:#b98564; stroke:none;" d="M88 39L89 40L88 39z"/>
<path style="fill:#d5ad8e; stroke:none;" d="M114 39L114 40L135 45L135 44L114 39M125 39L125 40L128 40L125 39z"/>
<path style="fill:#ddc4b0; stroke:none;" d="M128 39L129 40L128 39M15 40L16 41L15 40z"/>
<path style="fill:#d5ad8e; stroke:none;" d="M131.667 40.3333L132.333 40.6667L131.667 40.3333z"/>
<path style="fill:#ddc4b0; stroke:none;" d="M133.667 40.3333L134.333 40.6667L133.667 40.3333M14 41L15 42L14 41z"/>
<path style="fill:#b98564; stroke:none;" d="M72 41L72 42L76 42L72 41z"/>
<path style="fill:#d5ad8e; stroke:none;" d="M137.667 41.3333L138.333 41.6667L137.667 41.3333z"/>
<path style="fill:#ddc4b0; stroke:none;" d="M139.667 41.3333L140.333 41.6667L139.667 41.3333z"/>
<path style="fill:#d5ad8e; stroke:none;" d="M13 42L14 43L13 42M143 42L144 43L143 42z"/>
<path style="fill:#ddc4b0; stroke:none;" d="M144.667 42.3333L145.333 42.6667L144.667 42.3333z"/>
<path style="fill:#d5ad8e; stroke:none;" d="M12 43L13 44L12 43z"/>
<path style="fill:#b98564; stroke:none;" d="M39 43L40 44L39 43M87 43L88 44L87 43z"/>
<path style="fill:#f9dbb3; stroke:none;" d="M133 43L134 44L133 43z"/>
<path style="fill:#ddc4b0; stroke:none;" d="M134 43L137 45L134 43z"/>
<path style="fill:#d5ad8e; stroke:none;" d="M136 43L137 44L136 43M148 43L148 44L151 44L148 43z"/>
<path style="fill:#ddc4b0; stroke:none;" d="M151 43L152 44L151 43z"/>
<path style="fill:#d5ad8e; stroke:none;" d="M11 44L12 45L11 44z"/>
<path style="fill:#b98564; stroke:none;" d="M92.6667 44.3333L93.3333 44.6667L92.6667 44.3333z"/>
<path style="fill:#f9dbb3; stroke:none;" d="M137.667 44.3333L138.333 44.6667L137.667 44.3333z"/>
<path style="fill:#ddc4b0; stroke:none;" d="M139 44L142 46L139 44z"/>
<path style="fill:#d5ad8e; stroke:none;" d="M141.667 44.3333L142.333 44.6667L141.667 44.3333M155 44L155 45L158 45L155 44z"/>
<path style="fill:#ddc4b0; stroke:none;" d="M158.667 44.3333L159.333 44.6667L158.667 44.3333z"/>
<path style="fill:#d5ad8e; stroke:none;" d="M10 45L11 46L10 45z"/>
<path style="fill:#b98564; stroke:none;" d="M32 45L33 46L32 45z"/>
<path style="fill:#d5ad8e; stroke:none;" d="M138.667 45.3333L139.333 45.6667L138.667 45.3333z"/>
<path style="fill:#f9dbb3; stroke:none;" d="M142 45L142 46L145 46L142 45z"/>
<path style="fill:#ddc4b0; stroke:none;" d="M145 45L148 47L145 45z"/>
<path style="fill:#d5ad8e; stroke:none;" d="M147.667 45.3333L148.333 45.6667L147.667 45.3333M164 45L164 46L168 46L164 45z"/>
<path style="fill:#ddc4b0; stroke:none;" d="M168.667 45.3333L169.333 45.6667L168.667 45.3333M9 46L10 47L9 46z"/>
<path style="fill:#b98564; stroke:none;" d="M111 46L112 47L111 46z"/>
<path style="fill:#d5ad8e; stroke:none;" d="M144.667 46.3333L145.333 46.6667L144.667 46.3333z"/>
<path style="fill:#f9dbb3; stroke:none;" d="M148.667 46.3333L149.333 46.6667L148.667 46.3333z"/>
<path style="fill:#ddc4b0; stroke:none;" d="M150 46L150 47L155 48L155 47L150 46z"/>
<path style="fill:#d5ad8e; stroke:none;" d="M153 46L153 47L156 47L153 46M174 46L174 47L179 47L174 46z"/>
<path style="fill:#ddc4b0; stroke:none;" d="M179 46L179 47L183 47L179 46z"/>
<path style="fill:#b98564; stroke:none;" d="M26 47L27 48L26 47M103 47L104 48L103 47z"/>
<path style="fill:#d5ad8e; stroke:none;" d="M149 47L149 48L152 48L149 47z"/>
<path style="fill:#f9dbb3; stroke:none;" d="M155.667 47.3333L156.333 47.6667L155.667 47.3333z"/>
<path style="fill:#ddc4b0; stroke:none;" d="M157 47L157 48L163 49L163 48L157 47z"/>
<path style="fill:#d5ad8e; stroke:none;" d="M160 47L160 48L164 48L160 47M187 47L187 48L192 48L187 47z"/>
<path style="fill:#ddc4b0; stroke:none;" d="M192 47L192 48L195 48L192 47z"/>
<path style="fill:#d5ad8e; stroke:none;" d="M8 48L9 49L8 48z"/>
<path style="fill:#b98564; stroke:none;" d="M24 48L25 49L24 48M108 48L108 49L111 49L108 48z"/>
<path style="fill:#d5ad8e; stroke:none;" d="M157 48L157 49L160 49L157 48z"/>
<path style="fill:#f9dbb3; stroke:none;" d="M163 48L163 49L166 49L163 48z"/>
<path style="fill:#ddc4b0; stroke:none;" d="M166 48L166 49L172 49L166 48z"/>
<path style="fill:#d5ad8e; stroke:none;" d="M166 49L166 50L186 50L166 49M198.667 48.3333L199.333 48.6667L198.667 48.3333z"/>
<path style="fill:#ddc4b0; stroke:none;" d="M200 48L201 49L200 48M7 49L8 50L7 49z"/>
<path style="fill:#d5ad8e; stroke:none;" d="M203 49L204 50L203 49M7 50L8 51L7 50z"/>
<path style="fill:#b98564; stroke:none;" d="M136.667 50.3333L137.333 50.6667L136.667 50.3333z"/>
<path style="fill:#d5ad8e; stroke:none;" d="M188.667 50.3333L189.333 50.6667L188.667 50.3333M192 50L193 51L192 50M205 50L206 51L205 50z"/>
<path style="fill:#b98564; stroke:none;" d="M18 51L19 52L18 51z"/>
<path style="fill:#d5ad8e; stroke:none;" d="M206 51L207 52L206 51z"/>
<path style="fill:#ddc4b0; stroke:none;" d="M6 52L7 53L6 52z"/>
<path style="fill:#d5ad8e; stroke:none;" d="M207 52L208 53L207 52z"/>
<path style="fill:#b98564; stroke:none;" d="M14 53L15 54L14 53M207 53L207 57L208 57L207 53M12 54L13 55L12 54M136 54L136 55L139 55L136 54M203 54L204 55L203 54z"/>
<path style="fill:#d5ad8e; stroke:none;" d="M7 55L8 56L7 55z"/>
<path style="fill:#b98564; stroke:none;" d="M205 55L206 56L205 55M8 56L9 57L8 56M32 56L32 57L35 57L32 56z"/>
<path style="fill:#d5ad8e; stroke:none;" d="M35 56L35 57L39 57L35 56z"/>
<path style="fill:#ddc4b0; stroke:none;" d="M39 56L39 57L48 57L39 56z"/>
<path style="fill:#d5ad8e; stroke:none;" d="M48 56L48 57L52 57L48 56z"/>
<path style="fill:#b98564; stroke:none;" d="M52 56L52 57L56 57L52 56M158.667 56.3333L159.333 56.6667L158.667 56.3333M165 56L165 57L168 57L165 56M201.667 56.3333L202.333 56.6667L201.667 56.3333M9 57L10 58L9 57M26.6667 57.3333L27.3333 57.6667L26.6667 57.3333z"/>
<path style="fill:#d5ad8e; stroke:none;" d="M28.6667 57.3333L29.3333 57.6667L28.6667 57.3333z"/>
<path style="fill:#ddc4b0; stroke:none;" d="M30 57L31 58L30 57M58.6667 57.3333L59.3333 57.6667L58.6667 57.3333z"/>
<path style="fill:#d5ad8e; stroke:none;" d="M60.6667 57.3333L61.3333 57.6667L60.6667 57.3333z"/>
<path style="fill:#b98564; stroke:none;" d="M62 57L62 58L65 58L62 57M192.667 57.3333L193.333 57.6667L192.667 57.3333z"/>
<path style="fill:#ddc4b0; stroke:none;" d="M207 57L208 58L207 57M10 58L11 59L10 58z"/>
<path style="fill:#d5ad8e; stroke:none;" d="M11 58L12 59L11 58z"/>
<path style="fill:#b98564; stroke:none;" d="M12 58L13 59L12 58M21.6667 58.3333L22.3333 58.6667L21.6667 58.3333z"/>
<path style="fill:#d5ad8e; stroke:none;" d="M23.6667 58.3333L24.3333 58.6667L23.6667 58.3333z"/>
<path style="fill:#ddc4b0; stroke:none;" d="M25 58L26 59L25 58M66.6667 58.3333L67.3333 58.6667L66.6667 58.3333z"/>
<path style="fill:#d5ad8e; stroke:none;" d="M68.6667 58.3333L69.3333 58.6667L68.6667 58.3333z"/>
<path style="fill:#b98564; stroke:none;" d="M70.6667 58.3333L71.3333 58.6667L70.6667 58.3333z"/>
<path style="fill:#d5ad8e; stroke:none;" d="M206 58L207 59L206 58z"/>
<path style="fill:#ddc4b0; stroke:none;" d="M14 59L14 60L20 60L14 59M73.6667 59.3333L74.3333 59.6667L73.6667 59.3333z"/>
<path style="fill:#d5ad8e; stroke:none;" d="M75 59L76 60L75 59z"/>
<path style="fill:#b98564; stroke:none;" d="M76.6667 59.3333L77.3333 59.6667L76.6667 59.3333M205 59L206 60L205 59z"/>
<path style="fill:#ddc4b0; stroke:none;" d="M80 60L81 61L80 60z"/>
<path style="fill:#d5ad8e; stroke:none;" d="M81.6667 60.3333L82.3333 60.6667L81.6667 60.3333z"/>
<path style="fill:#b98564; stroke:none;" d="M83.6667 60.3333L84.3333 60.6667L83.6667 60.3333z"/>
<path style="fill:#d5ad8e; stroke:none;" d="M204 60L205 61L204 60z"/>
<path style="fill:#ddc4b0; stroke:none;" d="M86 61L87 62L86 61z"/>
<path style="fill:#d5ad8e; stroke:none;" d="M87.6667 61.3333L88.3333 61.6667L87.6667 61.3333z"/>
<path style="fill:#b98564; stroke:none;" d="M89.6667 61.3333L90.3333 61.6667L89.6667 61.3333M202 61L203 62L202 61z"/>
<path style="fill:#ddc4b0; stroke:none;" d="M203 61L204 62L203 61M93 62L94 63L93 62z"/>
<path style="fill:#d5ad8e; stroke:none;" d="M94.6667 62.3333L95.3333 62.6667L94.6667 62.3333z"/>
<path style="fill:#b98564; stroke:none;" d="M96.6667 62.3333L97.3333 62.6667L96.6667 62.3333M200 62L201 63L200 62z"/>
<path style="fill:#ddc4b0; stroke:none;" d="M201 62L202 63L201 62M99.6667 63.3333L100.333 63.6667L99.6667 63.3333z"/>
<path style="fill:#d5ad8e; stroke:none;" d="M101.667 63.3333L102.333 63.6667L101.667 63.3333z"/>
<path style="fill:#b98564; stroke:none;" d="M103 63L103 64L106 64L103 63z"/>
<path style="fill:#d5ad8e; stroke:none;" d="M198 63L199 64L198 63z"/>
<path style="fill:#ddc4b0; stroke:none;" d="M199 63L200 64L199 63M108.667 64.3333L109.333 64.6667L108.667 64.3333z"/>
<path style="fill:#d5ad8e; stroke:none;" d="M110.667 64.3333L111.333 64.6667L110.667 64.3333z"/>
<path style="fill:#b98564; stroke:none;" d="M112 64L112 65L115 65L112 64M195 64L196 65L195 64z"/>
<path style="fill:#ddc4b0; stroke:none;" d="M196 64L197 65L196 64M117.667 65.3333L118.333 65.6667L117.667 65.3333z"/>
<path style="fill:#d5ad8e; stroke:none;" d="M119 65L119 66L123 66L119 65z"/>
<path style="fill:#b98564; stroke:none;" d="M123 65L123 66L126 66L123 65M192 65L193 66L192 65z"/>
<path style="fill:#d5ad8e; stroke:none;" d="M193 65L194 66L193 65z"/>
<path style="fill:#ddc4b0; stroke:none;" d="M129 66L129 67L132 67L129 66z"/>
<path style="fill:#d5ad8e; stroke:none;" d="M132 66L132 67L135 67L132 66z"/>
<path style="fill:#b98564; stroke:none;" d="M135 66L135 67L140 67L135 66M186.667 66.3333L187.333 66.6667L186.667 66.3333z"/>
<path style="fill:#d5ad8e; stroke:none;" d="M188 66L189 67L188 66z"/>
<path style="fill:#ddc4b0; stroke:none;" d="M189 66L190 67L189 66M143 67L143 68L147 68L143 67z"/>
<path style="fill:#d5ad8e; stroke:none;" d="M147 67L147 68L153 68L147 67z"/>
<path style="fill:#b98564; stroke:none;" d="M153 67L153 68L165 68L153 67M166.667 67.3333L167.333 67.6667L166.667 67.3333M169 67L169 68L178 68L169 67z"/>
<path style="fill:#d5ad8e; stroke:none;" d="M178 67L178 68L182 68L178 67z"/>
<path style="fill:#ddc4b0; stroke:none;" d="M182.667 67.3333L183.333 67.6667L182.667 67.3333z"/>
</svg>
