<?xml version="1.0" standalone="yes"?>
<svg xmlns="http://www.w3.org/2000/svg" width="200" height="125">
<path style="fill:#fcf0de; stroke:none;" d="M0.333333 0.666664L0.666667 1.33334L0.333333 0.666664z"/>
<path style="fill:#f9dbb3; stroke:none;" d="M0 125L200 125L200 0L50 0L14 0C10.6942 0 3.51298 -1.34348 1.17901 1.60339C-3.43793 7.43276 0 26.6829 0 34L0 125z"/>
<path style="fill:#eec390; stroke:none;" d="M115 17L115 18L120 18L115 17M71 18L71 19L80 19L71 18M110 18L110 19L113 19L110 18z"/>
<path style="fill:#e9b474; stroke:none;" d="M25 31L25 39C28.2327 39 28.5335 44.6843 26 46.5C19.1625 51.4002 10.95 45.4701 9 56C20.6859 58.1433 20 72.958 20 82L26 83L22 68L23 68C23.1756 83.9112 36.3406 80.7235 48 84L45 85L45 86C58.0238 87.9248 66.2615 99.3884 78 104.56C94.9302 112.019 106.955 104.34 124 104.34C131.453 104.34 139.791 108.005 146.985 104.721C155.715 100.736 153.698 89.3583 161.093 84.7539C168.82 79.9432 181.318 82.0053 186 73L164 81L186 68L187 73L185.528 56L193 43C189.051 37.6849 183.543 36.182 178 32.9853C162.407 23.9925 152.844 21.7707 135 20.9606C129.206 20.6976 123.799 18.173 118 18.054C111.06 17.9117 104.853 21.5606 98 21.8951C89.2414 22.3225 80.9716 18.5402 72 19.0432C65.27 19.4206 59.4249 23.3913 53 25.0756C43.4316 27.584 34.4809 27.3825 25 31z"/>
<path style="fill:#eec390; stroke:none;" d="M122.667 18.3333L123.333 18.6667L122.667 18.3333M66.6667 19.3333L67.3333 19.6667L66.6667 19.3333M84.6667 19.3333L85.3333 19.6667L84.6667 19.3333M107.667 19.3333L108.333 19.6667L107.667 19.3333M126.667 19.3333L127.333 19.6667L126.667 19.3333M64.6667 20.3333L65.3333 20.6667L64.6667 20.3333M87 20L87 21L90 21L87 20M103 20L103 21L106 21L103 20M130 20L130 21L134 21L130 20M140 20L140 21L148 21L140 20M62 21L63 22L62 21M92 21L92 22L96 22L92 21M97 21L97 22L102 22L97 21M152 21L152 22L156 22L152 21M60 22L61 23L60 22M158.667 22.3333L159.333 22.6667L158.667 22.3333M57 23L58 24L57 23M162 23L163 24L162 23M54.6667 24.3333L55.3333 24.6667L54.6667 24.3333M164 24L165 25L164 24M44 25L44 26L52 26L44 25M166 25L167 26L166 25M36 26L36 27L40 27L36 26M36 34C36.3767 38.9013 39.0102 40.744 41.8958 44.439C44.2781 47.4896 45.4526 51.7967 48.5293 54.2577C57.0588 61.0803 66.4878 46.7533 72.0394 42.3789C75.8475 39.3782 86.8128 36.9176 87.1682 31.0903C87.5527 24.787 73.4583 26.5855 69.9992 27.3657C65.122 28.4659 60.9031 31.4197 56 32.4815C49.4783 33.8939 42.6202 32.771 36 34M167 26L168 27L167 26M32.6667 27.3333L33.3333 27.6667L32.6667 27.3333M169 27L170 28L169 27M29.6667 28.3333L30.3333 28.6667L29.6667 28.3333M118 30C119.576 39.3174 134.083 40.0443 140.961 44.3519C148.309 48.9539 151.511 63.4298 160.995 64.3187C168.433 65.0157 166.186 53.2443 168.318 49.0394C169.567 46.5758 171.924 45.1099 173.382 42.8341C174.488 41.1068 174.746 39.3007 173.377 37.6373C161.948 23.747 133.586 27.1064 118 30M170 28L171 29L170 28M27 29L25 30L25 31L27 29z"/>
<path style="fill:#f9dbb3; stroke:none;" d="M82 29L74 35L74 36C77.8534 35.3015 82.9744 33.6962 82 29z"/>
<path style="fill:#eec390; stroke:none;" d="M172 29L173 30L172 29z"/>
<path style="fill:#daa76e; stroke:none;" d="M27 30L28 31L27 30z"/>
<path style="fill:#f9dbb3; stroke:none;" d="M150 30L150 31L161 33L150 30z"/>
<path style="fill:#eec390; stroke:none;" d="M173 30L174 31L173 30M24 31L23 36L24 36L24 31M175 31L176 32L175 31M177 32L178 33L177 32z"/>
<path style="fill:#daa76e; stroke:none;" d="M24 33L25 38L26 38L24 33z"/>
<path style="fill:#eec390; stroke:none;" d="M178.667 33.3333L179.333 33.6667L178.667 33.3333M180.667 34.3333L181.333 34.6667L180.667 34.3333M182.667 35.3333L183.333 35.6667L182.667 35.3333M185 36L186 37L185 36M24 37L25 38L24 37M187 37L188 38L187 37z"/>
<path style="fill:#daa76e; stroke:none;" d="M26.3333 38.6667L26.6667 39.3333L26.3333 38.6667z"/>
<path style="fill:#eec390; stroke:none;" d="M189 38L190 39L189 38M190 39L191 40L190 39M26 40L27 41L26 40M191 40L192 41L191 40M189 41L190 42L189 41M192 41L193 42L192 41M27 42L28 43L27 42M109 48C103.526 33.5587 83.2896 46.9792 77.3549 54.1844C69.3686 63.8807 81.1731 61.9882 87 59.2153C90.0565 57.7607 92.9772 56.0419 96 54.5208C100.332 52.3409 104.747 50.3288 109 48z"/>
<path style="fill:#f9dbb3; stroke:none;" d="M189 42L190 43L189 42z"/>
<path style="fill:#eec390; stroke:none;" d="M186 47L187 47L189 46L190 44L186 47z"/>
<path style="fill:#daa76e; stroke:none;" d="M192 43L185 56C188.809 53.0585 193.4 48.1214 192 43z"/>
<path style="fill:#eec390; stroke:none;" d="M27.3333 44.6667L27.6667 45.3333L27.3333 44.6667z"/>
<path style="fill:#f9dbb3; stroke:none;" d="M188 44L189 45L188 44M187.333 45.6667L187.667 46.3333L187.333 45.6667z"/>
<path style="fill:#eec390; stroke:none;" d="M26 46L27 47L26 46z"/>
<path style="fill:#e9b474; stroke:none;" d="M192 46L193 47L192 46z"/>
<path style="fill:#eec390; stroke:none;" d="M21 47L21 48L24 48L21 47z"/>
<path style="fill:#f9dbb3; stroke:none;" d="M185.667 47.3333L186.333 47.6667L185.667 47.3333z"/>
<path style="fill:#eec390; stroke:none;" d="M192 47L193 48L192 47M14 48L14 49L19 49L14 48M184.667 48.3333L185.333 48.6667L184.667 48.3333z"/>
<path style="fill:#e9b474; stroke:none;" d="M191 48L192 49L191 48z"/>
<path style="fill:#eec390; stroke:none;" d="M11 49L12 50L11 49M191 49L192 50L191 49M10 50L11 51L10 50M190 50L191 51L190 50M9.33333 51.6667L9.66667 52.3333L9.33333 51.6667z"/>
<path style="fill:#e9b474; stroke:none;" d="M189 51L190 52L189 51z"/>
<path style="fill:#eec390; stroke:none;" d="M26.0448 52.5262C16.8605 54.114 33.4053 76.366 37.8711 75.2485C42.1685 74.1731 42.3532 67.3914 41.6057 64C40.1677 57.4756 33.0113 51.3218 26.0448 52.5262z"/>
<path style="fill:#f9dbb3; stroke:none;" d="M12 53L12 54L19 61L20 61L12 53z"/>
<path style="fill:#eec390; stroke:none;" d="M13 53L14 54L13 53M188 53L189 54L188 53z"/>
<path style="fill:#daa76e; stroke:none;" d="M9 54L10 55L9 54z"/>
<path style="fill:#eec390; stroke:none;" d="M187 54L188 55L187 54z"/>
<path style="fill:#daa76e; stroke:none;" d="M10 55L19 65L10 55z"/>
<path style="fill:#eec390; stroke:none;" d="M14 55L15 56L14 55M16 55L17 56L16 55M186 55L187 56L186 55M9 56L10 57L9 56M15 56L16 57L15 56M17 56L18 57L17 56M16 57L17 58L16 57M185 57L185 60L186 60L185 57M10 58L11 59L10 58M17 58L18 59L17 58M11 59L12 60L11 59M19 59L20 60L19 59M124 59.5069C104.406 61.8453 119.659 77.2424 130.996 75.7708C143.316 74.1717 133.264 58.4013 124 59.5069M12 60L13 61L12 60M13 61L14 62L13 61M19 61L20 62L19 61M186.333 61.6667L186.667 62.3333L186.333 61.6667z"/>
<path style="fill:#e9b474; stroke:none;" d="M15 62L16 63L15 62z"/>
<path style="fill:#f9dbb3; stroke:none;" d="M125 62L125 63L133 68L125 62z"/>
<path style="fill:#eec390; stroke:none;" d="M16 63L17 64L16 63M17 64L18 65L17 64M187 64L188 65L187 64M18 66L19 67L18 66M188.333 66.6667L188.667 67.3333L188.333 66.6667M19 67L19 70L20 70L19 67M22.3333 68.6667L22.6667 69.3333L22.3333 68.6667M185 68L186 71L183 72L183 73L187 74L185 68z"/>
<path style="fill:#f9dbb3; stroke:none;" d="M185.333 69.6667L185.667 70.3333L185.333 69.6667z"/>
<path style="fill:#eec390; stroke:none;" d="M189 69L189 75L190 75L189 69z"/>
<path style="fill:#f9dbb3; stroke:none;" d="M22 70L22 75L23 75L22 70z"/>
<path style="fill:#daa76e; stroke:none;" d="M188 70C182.416 81.868 169.292 78.3406 160.169 84.8287C153.103 89.8535 155.054 100.655 145.996 104.721C138.749 107.975 130.511 103.823 123 104.209C113.077 104.72 102.88 109.88 93 108.812C76.7278 107.052 67.755 94.5081 54 88.1883C46.0112 84.5178 33.5992 87.0006 27 82L21 81C24.0483 91.1313 45.4597 88.137 54 91.9684C68.1686 98.3247 77.2831 111.232 94 112.823C103.964 113.771 113.933 108.248 124 108.054C131.696 107.906 140.803 112.208 147.996 108.062C155.297 103.853 154.264 95.744 159.419 90.2778C165.589 83.7357 193.815 84.3976 188 70z"/>
<path style="fill:#f9dbb3; stroke:none;" d="M184 72L185 73L184 72z"/>
<path style="fill:#daa76e; stroke:none;" d="M186 72L187 73L186 72z"/>
<path style="fill:#f9dbb3; stroke:none;" d="M176 76L176 77L184 74L176 76z"/>
<path style="fill:#eec390; stroke:none;" d="M180 74L181 75L180 74M182 74L183 75L182 74M22 75L22 77L24 75L22 75M177 75L178 76L177 75M181 75L182 76L181 75z"/>
<path style="fill:#f9dbb3; stroke:none;" d="M23 76L30 82L30 81L23 76z"/>
<path style="fill:#daa76e; stroke:none;" d="M24 76L25 77L24 76z"/>
<path style="fill:#eec390; stroke:none;" d="M174 76L176 78L176 76L174 76M178 76L179 77L178 76M188 76L189 77L188 76M24 77L25 78L24 77M81 77.5285C61.8115 79.2115 71.9938 94.2213 86 92.8218C89.349 92.4871 102.915 88.8681 101.539 84C99.78 77.782 86.0758 77.0834 81 77.5285M170 77L170 78L174 79L174 78L170 77z"/>
<path style="fill:#f9dbb3; stroke:none;" d="M172 77L172 78L175 78L172 77z"/>
<path style="fill:#e9b474; stroke:none;" d="M187 77L188 78L187 77z"/>
<path style="fill:#eec390; stroke:none;" d="M23 78L24 79L23 78M167 78L167 80L169 80L167 78z"/>
<path style="fill:#f9dbb3; stroke:none;" d="M168 78L168 79L172 79L168 78z"/>
<path style="fill:#eec390; stroke:none;" d="M24 79L25 80L24 79z"/>
<path style="fill:#f9dbb3; stroke:none;" d="M76 80L76 81L86 80L76 80M164 79L164 80L167 80L164 79z"/>
<path style="fill:#e9b474; stroke:none;" d="M185 79L186 80L185 79z"/>
<path style="fill:#eec390; stroke:none;" d="M25 80L26 81L25 80M27 80L28 81L27 80M164 80L165 81L164 80M184 80L185 81L184 80M26 81L27 82L26 81M29 82L29 83L33 82L29 82M182.667 81.3333L183.333 81.6667L182.667 81.3333M20 82L21 83L20 82z"/>
<path style="fill:#e9b474; stroke:none;" d="M27 82L38 85L38 84L27 82z"/>
<path style="fill:#f9dbb3; stroke:none;" d="M31 82L31 83L39 83L31 82z"/>
<path style="fill:#eec390; stroke:none;" d="M36 83L36 84L43 83L36 83M180 82L181 83L180 82z"/>
<path style="fill:#f9dbb3; stroke:none;" d="M41 83L41 84L46 84L41 83z"/>
<path style="fill:#eec390; stroke:none;" d="M44 84L44 85L48 85L44 84z"/>
<path style="fill:#e9b474; stroke:none;" d="M176 83L177 84L176 83z"/>
<path style="fill:#eec390; stroke:none;" d="M177 83L178 84L177 83M21 84L22 85L21 84z"/>
<path style="fill:#e9b474; stroke:none;" d="M39 84L39 85L44 85L39 84M173 84L174 85L173 84z"/>
<path style="fill:#eec390; stroke:none;" d="M174 84L175 85L174 84M22 85L23 86L22 85M112 96C116.66 97.2056 121.172 98.0089 126 97.9961C129.02 97.9882 132 97.7867 135 97.4599C139.802 96.9368 155.717 91.2469 143.891 86.0131C136.409 82.7017 116.17 89.4121 112 96z"/>
<path style="fill:#e9b474; stroke:none;" d="M169 85L170 86L169 85z"/>
<path style="fill:#eec390; stroke:none;" d="M170 85L171 86L170 85M23 86L24 87L23 86z"/>
<path style="fill:#e9b474; stroke:none;" d="M24.6667 86.3333L25.3333 86.6667L24.6667 86.3333z"/>
<path style="fill:#eec390; stroke:none;" d="M166.667 86.3333L167.333 86.6667L166.667 86.3333M26 87L26 88L29 88L26 87z"/>
<path style="fill:#e9b474; stroke:none;" d="M29.6667 87.3333L30.3333 87.6667L29.6667 87.3333z"/>
<path style="fill:#eec390; stroke:none;" d="M163 87L164 88L163 87M33 88L33 89L38 89L33 88z"/>
<path style="fill:#e9b474; stroke:none;" d="M38.6667 88.3333L39.3333 88.6667L38.6667 88.3333M160 88L161 89L160 88z"/>
<path style="fill:#eec390; stroke:none;" d="M161 88L162 89L161 88M43.6667 89.3333L44.3333 89.6667L43.6667 89.3333z"/>
<path style="fill:#e9b474; stroke:none;" d="M45.6667 89.3333L46.3333 89.6667L45.6667 89.3333z"/>
<path style="fill:#eec390; stroke:none;" d="M159 89L160 90L159 89M48.6667 90.3333L49.3333 90.6667L48.6667 90.3333z"/>
<path style="fill:#e9b474; stroke:none;" d="M158 90L159 91L158 90z"/>
<path style="fill:#eec390; stroke:none;" d="M52 91L53 92L52 91z"/>
<path style="fill:#e9b474; stroke:none;" d="M53 91L54 92L53 91z"/>
<path style="fill:#eec390; stroke:none;" d="M158 91L159 92L158 91M54 92L55 93L54 92z"/>
<path style="fill:#e9b474; stroke:none;" d="M55 92L56 93L55 92M157 92L158 93L157 92z"/>
<path style="fill:#eec390; stroke:none;" d="M56 93L57 94L56 93z"/>
<path style="fill:#e9b474; stroke:none;" d="M57 93L58 94L57 93z"/>
<path style="fill:#eec390; stroke:none;" d="M157 93L158 94L157 93M58 94L59 95L58 94M156.333 95.6667L156.667 96.3333L156.333 95.6667M151 96L148 102L151 96z"/>
<path style="fill:#e9b474; stroke:none;" d="M62 97L63 98L62 97z"/>
<path style="fill:#f9dbb3; stroke:none;" d="M151 97L152 98L151 97z"/>
<path style="fill:#e9b474; stroke:none;" d="M63 98L64 99L63 98z"/>
<path style="fill:#eec390; stroke:none;" d="M75 98L75 99L75 100L80 101L80 100L75 98z"/>
<path style="fill:#f9dbb3; stroke:none;" d="M150 98L151 99L150 98z"/>
<path style="fill:#e9b474; stroke:none;" d="M155 98L156 99L155 98z"/>
<path style="fill:#eec390; stroke:none;" d="M64 99L65 100L64 99z"/>
<path style="fill:#f9dbb3; stroke:none;" d="M76 99L77 100L76 99M149 99L150 100L149 99z"/>
<path style="fill:#eec390; stroke:none;" d="M65 100L66 101L65 100z"/>
<path style="fill:#f9dbb3; stroke:none;" d="M78 100L79 101L78 100M148 100L149 101L148 100z"/>
<path style="fill:#e9b474; stroke:none;" d="M67 101L68 102L67 101z"/>
<path style="fill:#f9dbb3; stroke:none;" d="M79 101L79 102L83 103L83 102L79 101z"/>
<path style="fill:#eec390; stroke:none;" d="M81 101L82 102L81 101M115 101L115 102L132 102L115 101z"/>
<path style="fill:#f9dbb3; stroke:none;" d="M120 101L120 102L129 102L120 101z"/>
<path style="fill:#eec390; stroke:none;" d="M146.333 101.667L146.667 102.333L146.333 101.667z"/>
<path style="fill:#f9dbb3; stroke:none;" d="M147 101L148 102L147 101z"/>
<path style="fill:#eec390; stroke:none;" d="M154 101L155 102L154 101M68 102L69 103L68 102M80 102L81 103L80 102M83 102L82 104L84 104L83 102M108 102L108 103L113 104L113 103L108 102z"/>
<path style="fill:#f9dbb3; stroke:none;" d="M111 102L111 103L117 103L111 102M131.667 102.333L132.333 102.667L131.667 102.333z"/>
<path style="fill:#eec390; stroke:none;" d="M133 102L134 103L133 102M142 104L145 104L144 102L142 104z"/>
<path style="fill:#f9dbb3; stroke:none;" d="M144.667 102.333L145.333 102.667L144.667 102.333z"/>
<path style="fill:#e9b474; stroke:none;" d="M70 103L71 104L70 103z"/>
<path style="fill:#f9dbb3; stroke:none;" d="M84.6667 103.333L85.3333 103.667L84.6667 103.333z"/>
<path style="fill:#eec390; stroke:none;" d="M86 103L85 105L87 105L86 103M103 103L106 105L103 103z"/>
<path style="fill:#f9dbb3; stroke:none;" d="M105 103L105 104L110 104L105 103z"/>
<path style="fill:#eec390; stroke:none;" d="M153 103L154 104L153 103M71 104L72 105L71 104z"/>
<path style="fill:#f9dbb3; stroke:none;" d="M87 104L87 105L90 105L87 104z"/>
<path style="fill:#eec390; stroke:none;" d="M89 105L89 106L102 106C98.1065 103.34 93.3905 103.702 89 105z"/>
<path style="fill:#f9dbb3; stroke:none;" d="M100 104L100 105L104 105L100 104z"/>
<path style="fill:#e9b474; stroke:none;" d="M152 104L153 105L152 104z"/>
<path style="fill:#eec390; stroke:none;" d="M73 105L74 106L73 105z"/>
<path style="fill:#f9dbb3; stroke:none;" d="M93 105L93 106L97 106L93 105z"/>
<path style="fill:#e9b474; stroke:none;" d="M151 105L150 107L151 105z"/>
<path style="fill:#eec390; stroke:none;" d="M74 106L75 107L74 106z"/>
<path style="fill:#e9b474; stroke:none;" d="M75 106L76 107L75 106z"/>
<path style="fill:#eec390; stroke:none;" d="M151 106L152 107L151 106M76 107L77 108L76 107z"/>
<path style="fill:#e9b474; stroke:none;" d="M77 107L78 108L77 107M149 107L150 108L149 107z"/>
<path style="fill:#eec390; stroke:none;" d="M78.6667 108.333L79.3333 108.667L78.6667 108.333z"/>
<path style="fill:#e9b474; stroke:none;" d="M119.667 108.333L120.333 108.667L119.667 108.333z"/>
<path style="fill:#eec390; stroke:none;" d="M121 108L121 109L127 109L121 108z"/>
<path style="fill:#e9b474; stroke:none;" d="M127 108L127 109L130 109L127 108z"/>
<path style="fill:#eec390; stroke:none;" d="M148 108L149 109L148 108M80 109L81 110L80 109z"/>
<path style="fill:#e9b474; stroke:none;" d="M81 109L82 110L81 109M112.667 109.333L113.333 109.667L112.667 109.333z"/>
<path style="fill:#eec390; stroke:none;" d="M114.667 109.333L115.333 109.667L114.667 109.333M133 109L133 110L136 110L133 109z"/>
<path style="fill:#e9b474; stroke:none;" d="M136.667 109.333L137.333 109.667L136.667 109.333M144 109L145 110L144 109z"/>
<path style="fill:#eec390; stroke:none;" d="M145.667 109.333L146.333 109.667L145.667 109.333M83 110L84 111L83 110z"/>
<path style="fill:#e9b474; stroke:none;" d="M108 110L109 111L108 110z"/>
<path style="fill:#eec390; stroke:none;" d="M109.667 110.333L110.333 110.667L109.667 110.333M86 111L87 112L86 111z"/>
<path style="fill:#e9b474; stroke:none;" d="M87 111L88 112L87 111M104 111L105 112L104 111z"/>
<path style="fill:#eec390; stroke:none;" d="M105.667 111.333L106.333 111.667L105.667 111.333M89.6667 112.333L90.3333 112.667L89.6667 112.333z"/>
<path style="fill:#e9b474; stroke:none;" d="M91 112L92 113L91 112M100 112L101 113L100 112z"/>
<path style="fill:#eec390; stroke:none;" d="M101.667 112.333L102.333 112.667L101.667 112.333z"/>
</svg>
