<?xml version="1.0" standalone="yes"?>
<svg xmlns="http://www.w3.org/2000/svg" width="190" height="141">
<path style="fill:#f9dbb3; stroke:none;" d="M0 0L0 141L190 141L190 0L0 0z"/>
<path style="fill:#cba793; stroke:none;" d="M77 41L78 42L77 41z"/>
<path style="fill:#a47a6e; stroke:none;" d="M78 41L78 42L81 42L78 41z"/>
<path style="fill:#915f51; stroke:none;" d="M69 48L87.0147 53.8079L99 50.4336L109 50C98.0399 47.175 77.0432 33.8288 69 48z"/>
<path style="fill:#a47a6e; stroke:none;" d="M83 41L83 42L86 42L83 41z"/>
<path style="fill:#cba793; stroke:none;" d="M86 41L87 42L86 41M74 42L75 43L74 42z"/>
<path style="fill:#a47a6e; stroke:none;" d="M75 42L76 43L75 42M88 42L89 43L88 42z"/>
<path style="fill:#cba793; stroke:none;" d="M89 42L90 43L89 42M72 43L73 44L72 43z"/>
<path style="fill:#a47a6e; stroke:none;" d="M73 43L74 44L73 43M82 43L91 50L89 44L91 47L85 45L87 44L82 43M90 43L91 44L90 43z"/>
<path style="fill:#cba793; stroke:none;" d="M91 43L92 44L91 43M56 44L57 45L56 44z"/>
<path style="fill:#a47a6e; stroke:none;" d="M57 44L58 45L57 44z"/>
<path style="fill:#915f51; stroke:none;" d="M49 50L68 54L63 44C57.4141 44.2559 52.711 45.6825 49 50z"/>
<path style="fill:#a47a6e; stroke:none;" d="M63 44L64 45L63 44z"/>
<path style="fill:#cba793; stroke:none;" d="M64 44L65 45L64 44z"/>
<path style="fill:#a47a6e; stroke:none;" d="M71 44L72 45L71 44z"/>
<path style="fill:#cba793; stroke:none;" d="M85 44L86 45L85 44z"/>
<path style="fill:#f9dbb3; stroke:none;" d="M86 44L87 45L86 44z"/>
<path style="fill:#cba793; stroke:none;" d="M87 44L87 45L87 46L91 47L87 44z"/>
<path style="fill:#a47a6e; stroke:none;" d="M92 44L93 45L92 44z"/>
<path style="fill:#cba793; stroke:none;" d="M93 44L94 45L93 44M53 45L54 46L53 45z"/>
<path style="fill:#a47a6e; stroke:none;" d="M54 45L55 46L54 45z"/>
<path style="fill:#784646; stroke:none;" d="M62 45L62 46C65.7067 47.9615 67.5933 49.7489 68 54C58.6443 50.8515 43.3704 45.3578 33.0039 48.8549C19.5041 53.409 11.8975 71.8713 22.2137 82.8951C28.2806 89.3779 35.7311 87.969 43 91.3025C48.1727 93.6746 51.9012 97.9155 58 97.9136C62.7218 97.9121 66.4712 93.8824 71 94.2176C80.1917 94.8979 88.1735 99.2214 97 99.9059C101.701 100.27 105.487 98.3344 110 97.9336C114.395 97.5434 118.537 99.9453 123 99.446C127.825 98.9062 130.69 95.7109 135 94.1829C138.579 92.914 142.298 95.1477 146 94.1566C151.749 92.6177 157.247 88.1748 163 86C161.235 77.0686 142.847 70.9644 152 62L151 58L139 66C139.473 62.2595 141.603 55.8648 137.682 53.3179C130.758 48.8199 123.094 55.8174 116.09 54.6821C110.305 53.7446 105.294 50.1171 99 50.2122C94.7449 50.2765 91.2701 54.1943 87.0147 53.5741C83.6591 53.085 81.9336 49.7781 78.9105 48.6026C74.245 46.7885 67.0319 45.8936 62 45z"/>
<path style="fill:#915f51; stroke:none;" d="M65 45L66 46L65 45z"/>
<path style="fill:#cba793; stroke:none;" d="M66 45L67 46L66 45M69 45L70 46L69 45z"/>
<path style="fill:#f9dbb3; stroke:none;" d="M88 45L89 46L88 45z"/>
<path style="fill:#cba793; stroke:none;" d="M94 45L95 46L94 45M128 45L128 46L134 46L128 45z"/>
<path style="fill:#a47a6e; stroke:none;" d="M52 46L53 47L52 46z"/>
<path style="fill:#915f51; stroke:none;" d="M67 46L68 47L67 46z"/>
<path style="fill:#a47a6e; stroke:none;" d="M68 46L69 47L68 46M95 46L96 47L95 46z"/>
<path style="fill:#cba793; stroke:none;" d="M98 46L98 47L102 47L98 46M123 46L124 47L123 46z"/>
<path style="fill:#a47a6e; stroke:none;" d="M124.667 46.3333L125.333 46.6667L124.667 46.3333z"/>
<path style="fill:#915f51; stroke:none;" d="M113 55C119.41 54.9823 136.055 47.7349 139.382 56.1335C140.54 59.0564 139.239 62.9699 139 66L150 59L148 54L143 60C143.012 57.0265 142.535 53.5076 146 53L138 47L139 50L130 49L130 48L137 48C130.203 43.3564 115.432 46.7856 113 55z"/>
<path style="fill:#a47a6e; stroke:none;" d="M135.667 46.3333L136.333 46.6667L135.667 46.3333z"/>
<path style="fill:#cba793; stroke:none;" d="M137 46L138 47L137 46M35 47L35 48L38 48L35 47M50 47L51 48L50 47z"/>
<path style="fill:#a47a6e; stroke:none;" d="M61 47L67 51L67 50L62 49L64 48L61 47M103 47L107 50L107 49L103 47z"/>
<path style="fill:#cba793; stroke:none;" d="M104.667 47.3333L105.333 47.6667L104.667 47.3333M120 47L121 48L120 47z"/>
<path style="fill:#a47a6e; stroke:none;" d="M121 47L122 48L121 47z"/>
<path style="fill:#784646; stroke:none;" d="M137 47L138 48L137 47z"/>
<path style="fill:#a47a6e; stroke:none;" d="M139 47L140 48L139 47z"/>
<path style="fill:#cba793; stroke:none;" d="M31.6667 48.3333L32.3333 48.6667L31.6667 48.3333z"/>
<path style="fill:#915f51; stroke:none;" d="M33 48L34 49L33 48M40 48L41 49L40 48z"/>
<path style="fill:#a47a6e; stroke:none;" d="M41 48L42 49L41 48z"/>
<path style="fill:#cba793; stroke:none;" d="M42 48L43 49L42 48M49 48L50 49L49 48M62 48L63 49L62 48z"/>
<path style="fill:#f9dbb3; stroke:none;" d="M63 48L64 49L63 48z"/>
<path style="fill:#cba793; stroke:none;" d="M64 48L64 50L66 50L64 48M106 48L107 49L106 48M117 48L118 49L117 48z"/>
<path style="fill:#a47a6e; stroke:none;" d="M118 48L119 49L118 48M130 48L130 49L136 50L130 48z"/>
<path style="fill:#cba793; stroke:none;" d="M134 48L135 49L134 48z"/>
<path style="fill:#f9dbb3; stroke:none;" d="M135 48L136 49L135 48z"/>
<path style="fill:#cba793; stroke:none;" d="M136 48L136 50L138 50L138 48L136 48z"/>
<path style="fill:#a47a6e; stroke:none;" d="M141 48L142 49L141 48M30 49L31 50L30 49z"/>
<path style="fill:#915f51; stroke:none;" d="M43 49L44 50L43 49z"/>
<path style="fill:#a47a6e; stroke:none;" d="M44 49L45 50L44 49z"/>
<path style="fill:#cba793; stroke:none;" d="M48 49L49 50L48 49M108 49L109 50L108 49z"/>
<path style="fill:#a47a6e; stroke:none;" d="M116 49L117 50L116 49M138 49L139 50L138 49z"/>
<path style="fill:#cba793; stroke:none;" d="M143 49L144 50L143 49M28 50L29 51L28 50z"/>
<path style="fill:#915f51; stroke:none;" d="M29 50L30 51L29 50M31 59C34.373 59.2424 38.7032 62.0859 41.8912 61.2531C48.2776 59.5847 44.7892 52.9125 41 51L43 59L41 59L35 54L35 51L40 51C32.721 47.9536 30.8025 52.6603 31 59z"/>
<path style="fill:#a47a6e; stroke:none;" d="M46.6667 50.3333L47.3333 50.6667L46.6667 50.3333z"/>
<path style="fill:#cba793; stroke:none;" d="M109 50L110 51L109 50M114 50L115 51L114 50z"/>
<path style="fill:#a47a6e; stroke:none;" d="M144 50L145 51L144 50z"/>
<path style="fill:#cba793; stroke:none;" d="M27 51L28 52L27 51z"/>
<path style="fill:#a47a6e; stroke:none;" d="M35 51L35 54L41 59L43 59L44 54L38 53L38 52L42 53L35 51z"/>
<path style="fill:#cba793; stroke:none;" d="M110 51L111 52L110 51M113 51L114 52L113 51z"/>
<path style="fill:#a47a6e; stroke:none;" d="M145 51L146 52L145 51z"/>
<path style="fill:#cba793; stroke:none;" d="M26 52L27 53L26 52M38 52L39 53L38 52z"/>
<path style="fill:#f9dbb3; stroke:none;" d="M39 52L40 53L39 52z"/>
<path style="fill:#cba793; stroke:none;" d="M40 52L43 54L43 53L40 52z"/>
<path style="fill:#a47a6e; stroke:none;" d="M111 52L112 53L111 52z"/>
<path style="fill:#cba793; stroke:none;" d="M112 52L113 53L112 52z"/>
<path style="fill:#a47a6e; stroke:none;" d="M144 52L143 60L147 56L144 52M146 52L146 55L147 55L146 52z"/>
<path style="fill:#915f51; stroke:none;" d="M26 53L27 54L26 53z"/>
<path style="fill:#f9dbb3; stroke:none;" d="M41 53L42 54L41 53z"/>
<path style="fill:#cba793; stroke:none;" d="M144.667 53.3333L145.333 53.6667L144.667 53.3333z"/>
<path style="fill:#784646; stroke:none;" d="M146 53L147 54L146 53z"/>
<path style="fill:#a47a6e; stroke:none;" d="M25 54L26 55L25 54z"/>
<path style="fill:#f9dbb3; stroke:none;" d="M42 54L43 55L42 54M145 54L146 55L145 54z"/>
<path style="fill:#cba793; stroke:none;" d="M148 54L149 55L148 54M24 55L25 56L24 55M145.667 55.3333L146.333 55.6667L145.667 55.3333M149 55L150 56L149 55z"/>
<path style="fill:#a47a6e; stroke:none;" d="M23 56L24 57L23 56M149 56L150 57L149 56z"/>
<path style="fill:#915f51; stroke:none;" d="M22 57L23 58L22 57z"/>
<path style="fill:#cba793; stroke:none;" d="M150 57L151 58L150 57z"/>
<path style="fill:#915f51; stroke:none;" d="M21 58L22 59L21 58z"/>
<path style="fill:#cba793; stroke:none;" d="M151 58L152 59L151 58z"/>
<path style="fill:#915f51; stroke:none;" d="M20 59L21 60L20 59z"/>
<path style="fill:#a47a6e; stroke:none;" d="M151 59L152 60L151 59M19 60L20 61L19 60z"/>
<path style="fill:#915f51; stroke:none;" d="M151 60L149.5 72L159 77.3333L163 86C169.097 82.7588 169.981 78.5128 170 72L169 72L168 79L157 65L169 68C164.152 61.579 157.847 62.5697 151 60z"/>
<path style="fill:#cba793; stroke:none;" d="M152 60L153 61L152 60M18 61L19 62L18 61z"/>
<path style="fill:#915f51; stroke:none;" d="M85 68C88.3474 69.5958 90.1799 72.8018 93.375 74.4159C96.6132 76.0518 99.3349 78.2982 102.44 79.9182C108.06 82.8504 108.291 73.0103 107.347 70.0008C104.439 60.724 86.3931 55.7936 85 68z"/>
<path style="fill:#a47a6e; stroke:none;" d="M153 61L154 62L153 61M157 61L157 62L160 62L157 61z"/>
<path style="fill:#cba793; stroke:none;" d="M160.667 61.3333L161.333 61.6667L160.667 61.3333z"/>
<path style="fill:#915f51; stroke:none;" d="M18 62L19 63L18 62z"/>
<path style="fill:#a47a6e; stroke:none;" d="M162 62L163 63L162 62z"/>
<path style="fill:#cba793; stroke:none;" d="M163 62L164 63L163 62M17 63L18 64L17 63z"/>
<path style="fill:#a47a6e; stroke:none;" d="M95 63C97.2608 67.2347 101.065 71.0768 106 71L105 68C102.332 68 100.251 66.4985 102 64L95 63z"/>
<path style="fill:#cba793; stroke:none;" d="M165 63L166 64L165 63z"/>
<path style="fill:#a47a6e; stroke:none;" d="M17 64L18 65L17 64z"/>
<path style="fill:#915f51; stroke:none;" d="M44 74C39.2022 73.9115 36.6444 70.7322 34 67L44 73C41.627 68.9318 38.8188 65.6277 34.0008 64.5378C31.4018 63.9499 26.7887 64.1696 28.1613 68.0579C30.0256 73.3392 43.1791 84.5424 44 74z"/>
<path style="fill:#a47a6e; stroke:none;" d="M157 65L168 79C170.323 71.067 166.22 62.4977 157 65z"/>
<path style="fill:#cba793; stroke:none;" d="M166 64L167 65L166 64z"/>
<path style="fill:#915f51; stroke:none;" d="M17 65L18 66L17 65z"/>
<path style="fill:#f9dbb3; stroke:none;" d="M100 65L101 66L100 65z"/>
<path style="fill:#cba793; stroke:none;" d="M101 65L104 69L101 65M167 65L168 66L167 65M16 66L16 73L17 73L16 66M162 66L167 70L167 69L162 66M168 66L169 67L168 66z"/>
<path style="fill:#a47a6e; stroke:none;" d="M34 67L42 75L43 74L38 68L41 72L37 67L34 67z"/>
<path style="fill:#f9dbb3; stroke:none;" d="M164 67L165 68L164 67z"/>
<path style="fill:#cba793; stroke:none;" d="M36 68L41 72L41 71L36 68z"/>
<path style="fill:#784646; stroke:none;" d="M168 68L169 69L168 68z"/>
<path style="fill:#cba793; stroke:none;" d="M169 68L170 69L169 68z"/>
<path style="fill:#f9dbb3; stroke:none;" d="M38 69L39 70L38 69z"/>
<path style="fill:#915f51; stroke:none;" d="M168 69L168 71L170 71L168 69z"/>
<path style="fill:#a47a6e; stroke:none;" d="M169 69L170 70L169 69z"/>
<path style="fill:#f9dbb3; stroke:none;" d="M39 70L40 71L39 70z"/>
<path style="fill:#915f51; stroke:none;" d="M47 79C49.1621 78.1618 52.2299 76.1023 54.5856 77.1667C58.6656 79.01 60.9683 87.3765 66.0455 87.3642C71.2096 87.3516 70.043 79.7684 68.2577 77.0432C63.4761 69.7443 44.5506 65.7141 47 79z"/>
<path style="fill:#f9dbb3; stroke:none;" d="M166 70L167 71L166 70z"/>
<path style="fill:#cba793; stroke:none;" d="M166.667 71.3333L167.333 71.6667L166.667 71.3333z"/>
<path style="fill:#784646; stroke:none;" d="M169 71L170 72L169 71z"/>
<path style="fill:#cba793; stroke:none;" d="M170 71L171 72L170 71z"/>
<path style="fill:#a47a6e; stroke:none;" d="M58 72C59.4396 77.125 62.7185 80.185 68 81C67.5409 78.3907 67.3453 77.3717 65 79L61 75L61 74L64 75L58 72z"/>
<path style="fill:#f9dbb3; stroke:none;" d="M167.333 72.6667L167.667 73.3333L167.333 72.6667z"/>
<path style="fill:#a47a6e; stroke:none;" d="M170 72L170 78L171 78L170 72M17 74L18 75L17 74z"/>
<path style="fill:#cba793; stroke:none;" d="M61 74L63 76L61 74z"/>
<path style="fill:#f9dbb3; stroke:none;" d="M62 74L63 75L62 74z"/>
<path style="fill:#cba793; stroke:none;" d="M17 75L18 76L17 75z"/>
<path style="fill:#f9dbb3; stroke:none;" d="M63 75L66 78L63 75z"/>
<path style="fill:#cba793; stroke:none;" d="M64 75L65 76L64 75M65 76L66 77L65 76z"/>
<path style="fill:#a47a6e; stroke:none;" d="M18 77L19 78L18 77z"/>
<path style="fill:#cba793; stroke:none;" d="M18 78L19 79L18 78M65 78L66 79L65 78z"/>
<path style="fill:#915f51; stroke:none;" d="M115.153 78.7423C110.835 80.7391 113.768 86.2001 116.46 88.3958C118.894 90.3813 128.776 90.4378 131.678 89.2963C135.349 87.8523 132.608 83.127 130.772 81.3943C127.196 78.02 119.726 76.6277 115.153 78.7423z"/>
<path style="fill:#cba793; stroke:none;" d="M170.333 78.6667L170.667 79.3333L170.333 78.6667z"/>
<path style="fill:#a47a6e; stroke:none;" d="M19 79L20 80L19 79z"/>
<path style="fill:#915f51; stroke:none;" d="M145 85C145.615 87.9449 149.515 93.4097 151.644 87.848C157.236 73.2371 129.56 83.7648 145 85z"/>
<path style="fill:#cba793; stroke:none;" d="M19 80L20 81L19 80z"/>
<path style="fill:#a47a6e; stroke:none;" d="M169 80L170 81L169 80M20 81L21 82L20 81z"/>
<path style="fill:#915f51; stroke:none;" d="M73 83L73 84L81 90L85 90C84.4636 82.9084 79.4186 80.0486 73 83z"/>
<path style="fill:#a47a6e; stroke:none;" d="M124 81C125.314 84.8729 128.143 86.1118 132 87L132 86L124 81M145 81L150 85L150 84L145 81z"/>
<path style="fill:#cba793; stroke:none;" d="M146 81L150 84L150 83L146 81M169 81L170 82L169 81z"/>
<path style="fill:#a47a6e; stroke:none;" d="M21 82L22 83L21 82z"/>
<path style="fill:#cba793; stroke:none;" d="M126 82L131 86L131 85L126 82z"/>
<path style="fill:#f9dbb3; stroke:none;" d="M148 82L149 83L148 82z"/>
<path style="fill:#a47a6e; stroke:none;" d="M149 82L150 83L149 82z"/>
<path style="fill:#cba793; stroke:none;" d="M168 82L169 83L168 82z"/>
<path style="fill:#a47a6e; stroke:none;" d="M22 83L23 84L22 83M80 83L84 86L80 83z"/>
<path style="fill:#f9dbb3; stroke:none;" d="M128 83L130 85L128 83z"/>
<path style="fill:#a47a6e; stroke:none;" d="M129 83L130 84L129 83z"/>
<path style="fill:#cba793; stroke:none;" d="M167 83L168 84L167 83z"/>
<path style="fill:#a47a6e; stroke:none;" d="M23 84L24 85L23 84M130 84L131 85L130 84z"/>
<path style="fill:#cba793; stroke:none;" d="M166 84L167 85L166 84z"/>
<path style="fill:#a47a6e; stroke:none;" d="M24 85L25 86L24 85M164 85L165 86L164 85z"/>
<path style="fill:#cba793; stroke:none;" d="M25 86L26 87L25 86z"/>
<path style="fill:#915f51; stroke:none;" d="M26 86L27 87L26 86z"/>
<path style="fill:#a47a6e; stroke:none;" d="M162 86L163 87L162 86z"/>
<path style="fill:#cba793; stroke:none;" d="M163 86L164 87L163 86M27 87L28 88L27 87z"/>
<path style="fill:#915f51; stroke:none;" d="M28 87L29 88L28 87M158 87L159 88L158 87z"/>
<path style="fill:#a47a6e; stroke:none;" d="M159 87L160 88L159 87z"/>
<path style="fill:#cba793; stroke:none;" d="M160 87L161 88L160 87M29 88L30 89L29 88z"/>
<path style="fill:#915f51; stroke:none;" d="M30 88L31 89L30 88z"/>
<path style="fill:#a47a6e; stroke:none;" d="M154 88L155 89L154 88z"/>
<path style="fill:#cba793; stroke:none;" d="M155.667 88.3333L156.333 88.6667L155.667 88.3333M32 89L33 90L32 89z"/>
<path style="fill:#a47a6e; stroke:none;" d="M33 89L34 90L33 89z"/>
<path style="fill:#915f51; stroke:none;" d="M34 89L35 90L34 89z"/>
<path style="fill:#cba793; stroke:none;" d="M153 89L154 90L153 89M36 90L37 91L36 90z"/>
<path style="fill:#a47a6e; stroke:none;" d="M37.6667 90.3333L38.3333 90.6667L37.6667 90.3333z"/>
<path style="fill:#915f51; stroke:none;" d="M39 90L39 91L42 91L39 90z"/>
<path style="fill:#a47a6e; stroke:none;" d="M152 90L153 91L152 90z"/>
<path style="fill:#cba793; stroke:none;" d="M44 91L45 92L44 91z"/>
<path style="fill:#a47a6e; stroke:none;" d="M151 91L152 92L151 91z"/>
<path style="fill:#cba793; stroke:none;" d="M45 92L46 93L45 92z"/>
<path style="fill:#a47a6e; stroke:none;" d="M150 92L151 93L150 92z"/>
<path style="fill:#cba793; stroke:none;" d="M46 93L47 94L46 93M69.6667 93.3333L70.3333 93.6667L69.6667 93.3333z"/>
<path style="fill:#915f51; stroke:none;" d="M71 93L72 94L71 93M134 93L133 95L134 93z"/>
<path style="fill:#cba793; stroke:none;" d="M135.667 93.3333L136.333 93.6667L135.667 93.3333z"/>
<path style="fill:#915f51; stroke:none;" d="M137 93L138 94L137 93M148 93L149 94L148 93z"/>
<path style="fill:#cba793; stroke:none;" d="M149 93L150 94L149 93M47 94L48 95L47 94z"/>
<path style="fill:#915f51; stroke:none;" d="M67 94L68 95L67 94z"/>
<path style="fill:#cba793; stroke:none;" d="M68 94L69 95L68 94z"/>
<path style="fill:#a47a6e; stroke:none;" d="M72 94L73 95L72 94M84 94L85 95L84 94z"/>
<path style="fill:#cba793; stroke:none;" d="M134 94L135 95L134 94M138 94L139 95L138 94z"/>
<path style="fill:#a47a6e; stroke:none;" d="M139 94L140 95L139 94z"/>
<path style="fill:#915f51; stroke:none;" d="M140.667 94.3333L141.333 94.6667L140.667 94.3333M145 94L146 95L145 94z"/>
<path style="fill:#a47a6e; stroke:none;" d="M146 94L147 95L146 94z"/>
<path style="fill:#cba793; stroke:none;" d="M147 94L148 95L147 94z"/>
<path style="fill:#915f51; stroke:none;" d="M49 95L50 96L49 95z"/>
<path style="fill:#a47a6e; stroke:none;" d="M66 95L67 96L66 95z"/>
<path style="fill:#cba793; stroke:none;" d="M73 95L74 96L73 95z"/>
<path style="fill:#915f51; stroke:none;" d="M74 95L75 96L74 95z"/>
<path style="fill:#a47a6e; stroke:none;" d="M82 95L83 96L82 95z"/>
<path style="fill:#cba793; stroke:none;" d="M83 95L84 96L83 95M85 95L86 96L85 95z"/>
<path style="fill:#915f51; stroke:none;" d="M86 95L87 96L86 95M132 95L133 96L132 95z"/>
<path style="fill:#cba793; stroke:none;" d="M50 96L51 97L50 96z"/>
<path style="fill:#915f51; stroke:none;" d="M51 96L52 97L51 96M64 96L65 97L64 96z"/>
<path style="fill:#cba793; stroke:none;" d="M65 96L66 97L65 96M75.6667 96.3333L76.3333 96.6667L75.6667 96.3333z"/>
<path style="fill:#a47a6e; stroke:none;" d="M77 96L77 97L80 97L77 96z"/>
<path style="fill:#cba793; stroke:none;" d="M80 96L81 97L80 96z"/>
<path style="fill:#a47a6e; stroke:none;" d="M87 96L88 97L87 96z"/>
<path style="fill:#915f51; stroke:none;" d="M131 96L132 97L131 96z"/>
<path style="fill:#cba793; stroke:none;" d="M52 97L53 98L52 97z"/>
<path style="fill:#915f51; stroke:none;" d="M53 97L54 98L53 97z"/>
<path style="fill:#a47a6e; stroke:none;" d="M62 97L63 98L62 97z"/>
<path style="fill:#cba793; stroke:none;" d="M63 97L64 98L63 97M88 97L89 98L88 97z"/>
<path style="fill:#915f51; stroke:none;" d="M109 97L110 98L109 97z"/>
<path style="fill:#a47a6e; stroke:none;" d="M110 97L111 98L110 97z"/>
<path style="fill:#915f51; stroke:none;" d="M111 97L112 98L111 97z"/>
<path style="fill:#cba793; stroke:none;" d="M130 97L131 98L130 97M55.6667 98.3333L56.3333 98.6667L55.6667 98.3333z"/>
<path style="fill:#a47a6e; stroke:none;" d="M57 98L58 99L57 98z"/>
<path style="fill:#cba793; stroke:none;" d="M58 98L58 99L61 99L58 98z"/>
<path style="fill:#a47a6e; stroke:none;" d="M90 98L91 99L90 98z"/>
<path style="fill:#915f51; stroke:none;" d="M107 98L108 99L107 98z"/>
<path style="fill:#cba793; stroke:none;" d="M108 98L109 99L108 98M112 98L113 99L112 98z"/>
<path style="fill:#a47a6e; stroke:none;" d="M113 98L114 99L113 98z"/>
<path style="fill:#915f51; stroke:none;" d="M114 98L115 99L114 98M127 98L128 99L127 98z"/>
<path style="fill:#a47a6e; stroke:none;" d="M128 98L129 99L128 98z"/>
<path style="fill:#cba793; stroke:none;" d="M92 99L93 100L92 99z"/>
<path style="fill:#a47a6e; stroke:none;" d="M93 99L94 100L93 99z"/>
<path style="fill:#915f51; stroke:none;" d="M104 99L105 100L104 99z"/>
<path style="fill:#a47a6e; stroke:none;" d="M105 99L106 100L105 99z"/>
<path style="fill:#cba793; stroke:none;" d="M106 99L107 100L106 99M115 99L116 100L115 99z"/>
<path style="fill:#a47a6e; stroke:none;" d="M116.667 99.3333L117.333 99.6667L116.667 99.3333z"/>
<path style="fill:#915f51; stroke:none;" d="M118.667 99.3333L119.333 99.6667L118.667 99.3333M123.667 99.3333L124.333 99.6667L123.667 99.3333z"/>
<path style="fill:#a47a6e; stroke:none;" d="M125 99L126 100L125 99z"/>
<path style="fill:#cba793; stroke:none;" d="M126 99L127 100L126 99M95.6667 100.333L96.3333 100.667L95.6667 100.333z"/>
<path style="fill:#a47a6e; stroke:none;" d="M97 100L97 101L102 101L97 100z"/>
<path style="fill:#cba793; stroke:none;" d="M102.667 100.333L103.333 100.667L102.667 100.333z"/>
</svg>
