<?xml version="1.0" standalone="yes"?>
<svg xmlns="http://www.w3.org/2000/svg" width="188" height="138">
<path style="fill:#f9dbb3; stroke:none;" d="M0 0L0 138L188 138L188 0L0 0z"/>
<path style="fill:#e0bda4; stroke:none;" d="M52 41L53 42L52 41z"/>
<path style="fill:#cea78a; stroke:none;" d="M53 41L53 42L56 42L53 41z"/>
<path style="fill:#b07c5f; stroke:none;" d="M19 57C35.7089 55.0161 53.1007 49.9377 70 51.0895C80.4412 51.8012 89.6978 56.7981 100 57.8295C111.922 59.023 124.303 57.8722 136 60.6543C145.474 62.9076 152.676 69.7669 162 72.0972C164.52 72.727 171.143 74.373 172.183 70.6821C173.404 66.3479 167.629 62.2411 164.996 59.8302C155.549 51.1806 148.52 50.42 137 46.4097C124.718 42.1342 114.532 44.1877 102 43.946C82.9064 43.5777 64.9149 40.3867 46 43.679C34.7199 45.6424 25.6586 46.444 19 57z"/>
<path style="fill:#cea78a; stroke:none;" d="M65.6667 41.3333L66.3333 41.6667L65.6667 41.3333z"/>
<path style="fill:#e0bda4; stroke:none;" d="M67.6667 41.3333L68.3333 41.6667L67.6667 41.3333M49 42L50 43L49 42z"/>
<path style="fill:#cea78a; stroke:none;" d="M50 42L51 43L50 42M70.6667 42.3333L71.3333 42.6667L70.6667 42.3333z"/>
<path style="fill:#e0bda4; stroke:none;" d="M72.6667 42.3333L73.3333 42.6667L72.6667 42.3333M78 42L78 43L81 43L78 42z"/>
<path style="fill:#cea78a; stroke:none;" d="M81 42L81 43L84 43L81 42M90 42L90 43L93 43L90 42z"/>
<path style="fill:#e0bda4; stroke:none;" d="M93.6667 42.3333L94.3333 42.6667L93.6667 42.3333M111 42L111 43L114 43L111 42z"/>
<path style="fill:#cea78a; stroke:none;" d="M114 42L114 43L121 43L114 42z"/>
<path style="fill:#e0bda4; stroke:none;" d="M121 42L121 43L124 43L121 42M45 43L46 44L45 43z"/>
<path style="fill:#cea78a; stroke:none;" d="M46.6667 43.3333L47.3333 43.6667L46.6667 43.3333M97 43L97 44L100 44L97 43z"/>
<path style="fill:#e0bda4; stroke:none;" d="M100 43L100 44L106 44L100 43z"/>
<path style="fill:#cea78a; stroke:none;" d="M106.667 43.3333L107.333 43.6667L106.667 43.3333M127 43L128 44L127 43z"/>
<path style="fill:#e0bda4; stroke:none;" d="M128.667 43.3333L129.333 43.6667L128.667 43.3333M35.6667 44.3333L36.3333 44.6667L35.6667 44.3333z"/>
<path style="fill:#cea78a; stroke:none;" d="M37 44L37 45L40 45L37 44M55 44L55 45L66 47L55 44z"/>
<path style="fill:#e0bda4; stroke:none;" d="M60 44L60 45L69 46L60 44z"/>
<path style="fill:#cea78a; stroke:none;" d="M67.6667 44.3333L68.3333 44.6667L67.6667 44.3333M131 44L132 45L131 44z"/>
<path style="fill:#e0bda4; stroke:none;" d="M132 44L133 45L132 44z"/>
<path style="fill:#cea78a; stroke:none;" d="M32.6667 45.3333L33.3333 45.6667L32.6667 45.3333M68 47L71 47L70 45L68 47M111 46L111 47L118 48L118 47L116 47L116 46L119 46L111 46M134 45L135 46L134 45z"/>
<path style="fill:#e0bda4; stroke:none;" d="M135 45L136 46L135 45M29 46L30 47L29 46z"/>
<path style="fill:#cea78a; stroke:none;" d="M30 46L31 47L30 46z"/>
<path style="fill:#e0bda4; stroke:none;" d="M116.667 46.3333L117.333 46.6667L116.667 46.3333z"/>
<path style="fill:#f9dbb3; stroke:none;" d="M118 46L119 47L118 46z"/>
<path style="fill:#e0bda4; stroke:none;" d="M119 46L120 47L119 46z"/>
<path style="fill:#f9dbb3; stroke:none;" d="M120.667 46.3333L121.333 46.6667L120.667 46.3333z"/>
<path style="fill:#e0bda4; stroke:none;" d="M122 46L122 47L127 48L127 47L122 46z"/>
<path style="fill:#cea78a; stroke:none;" d="M125.667 46.3333L126.333 46.6667L125.667 46.3333M137 46L138 47L137 46z"/>
<path style="fill:#e0bda4; stroke:none;" d="M138 46L139 47L138 46M27 47L28 48L27 47z"/>
<path style="fill:#cea78a; stroke:none;" d="M28 47L29 48L28 47M33 50L37 48L33 50z"/>
<path style="fill:#e0bda4; stroke:none;" d="M35 48L35 49L42 48L35 48z"/>
<path style="fill:#cea78a; stroke:none;" d="M42 47L38 50L42 47M119 47L119 49L124 48L119 47z"/>
<path style="fill:#f9dbb3; stroke:none;" d="M127 47L128 48L127 47z"/>
<path style="fill:#e0bda4; stroke:none;" d="M128 47L131 49L128 47z"/>
<path style="fill:#cea78a; stroke:none;" d="M130 47L131 48L130 47M139.667 47.3333L140.333 47.6667L139.667 47.3333z"/>
<path style="fill:#e0bda4; stroke:none;" d="M141 47L142 48L141 47z"/>
<path style="fill:#cea78a; stroke:none;" d="M26 48L27 49L26 48M124 49L124 50L132 50L132 49L129 50L124 49z"/>
<path style="fill:#f9dbb3; stroke:none;" d="M131 48L132 49L131 48z"/>
<path style="fill:#e0bda4; stroke:none;" d="M132 48L132 50L134 50L132 48z"/>
<path style="fill:#cea78a; stroke:none;" d="M133 48L134 49L133 48M145.667 48.3333L146.333 48.6667L145.667 48.3333z"/>
<path style="fill:#e0bda4; stroke:none;" d="M147 48L148 49L147 48z"/>
<path style="fill:#cea78a; stroke:none;" d="M25 49L26 50L25 49z"/>
<path style="fill:#b07c5f; stroke:none;" d="M129 49L130 50L129 49z"/>
<path style="fill:#cea78a; stroke:none;" d="M134 49L133 52L136 50L134 49M150 49L151 50L150 49z"/>
<path style="fill:#e0bda4; stroke:none;" d="M151 49L152 50L151 49M23 50L24 51L23 50z"/>
<path style="fill:#b07c5f; stroke:none;" d="M134 50L135 51L134 50z"/>
<path style="fill:#cea78a; stroke:none;" d="M153 50L154 51L153 50z"/>
<path style="fill:#e0bda4; stroke:none;" d="M22 51L23 52L22 51z"/>
<path style="fill:#935f50; stroke:none;" d="M173 72C160.792 74.8729 152.715 65.9348 142 62.0903C131.072 58.1694 118.459 58.5595 107 58.0394C92.5492 57.3833 79.6172 50.6622 65 51.0147C53.4228 51.2938 42.374 53.7012 31.0008 55.564C27.53 56.1325 22.1788 55.2557 19.1667 57.2623C5.71343 66.225 18.0776 86.2127 28 91.1898C40.1062 97.2624 50.3673 94.4137 63 95.213C68.7496 95.5768 74.1733 97.8445 80 97.9853C94.9499 98.3468 110.219 95.8181 125 96.26C145.905 96.8851 171.774 100.476 173 72z"/>
<path style="fill:#cea78a; stroke:none;" d="M131 51L132 52L131 51M155 51L156 52L155 51z"/>
<path style="fill:#e0bda4; stroke:none;" d="M157 52L158 53L157 52z"/>
<path style="fill:#cea78a; stroke:none;" d="M21 53L22 54L21 53M158 53L159 54L158 53M20 54L21 55L20 54M151 54L155 58L155 54L151 54z"/>
<path style="fill:#e0bda4; stroke:none;" d="M153 54L154 55L153 54z"/>
<path style="fill:#cea78a; stroke:none;" d="M159 54L162 57L159 54z"/>
<path style="fill:#e0bda4; stroke:none;" d="M160 54L161 55L160 54M19 55L20 56L19 55z"/>
<path style="fill:#f9dbb3; stroke:none;" d="M154 55L155 56L154 55z"/>
<path style="fill:#e0bda4; stroke:none;" d="M155.333 55.6667L155.667 56.3333L155.333 55.6667z"/>
<path style="fill:#cea78a; stroke:none;" d="M156 55L157 56L156 55z"/>
<path style="fill:#e0bda4; stroke:none;" d="M161 55L162 56L161 55M18 56L19 57L18 56z"/>
<path style="fill:#b07c5f; stroke:none;" d="M154 56L155 57L154 56z"/>
<path style="fill:#f9dbb3; stroke:none;" d="M156 56L157 57L156 56z"/>
<path style="fill:#e0bda4; stroke:none;" d="M157.333 56.6667L157.667 57.3333L157.333 56.6667M17 57L16 59L17 57z"/>
<path style="fill:#cea78a; stroke:none;" d="M156 57L157 58L156 57M158 57L157 59L159 59L158 57M162 57L163 58L162 57z"/>
<path style="fill:#b07c5f; stroke:none;" d="M17 58L18 59L17 58z"/>
<path style="fill:#cea78a; stroke:none;" d="M163 58L164 59L163 58M16 59L17 60L16 59M164 59L165 60L164 59z"/>
<path style="fill:#e0bda4; stroke:none;" d="M15 60L16 61L15 60z"/>
<path style="fill:#b07c5f; stroke:none;" d="M17 60L18 61L17 60z"/>
<path style="fill:#cea78a; stroke:none;" d="M165 60L166 61L165 60M15 61L16 62L15 61z"/>
<path style="fill:#b07c5f; stroke:none;" d="M21 61L22 62L21 61z"/>
<path style="fill:#cea78a; stroke:none;" d="M166 61L167 62L166 61z"/>
<path style="fill:#b07c5f; stroke:none;" d="M15 62L16 63L15 62z"/>
<path style="fill:#e0bda4; stroke:none;" d="M168 62L169 63L168 62z"/>
<path style="fill:#cea78a; stroke:none;" d="M14.3333 63.6667L14.6667 64.3333L14.3333 63.6667z"/>
<path style="fill:#e0bda4; stroke:none;" d="M169 63L170 64L169 63M170 64L171 65L170 64z"/>
<path style="fill:#b07c5f; stroke:none;" d="M14.3333 65.6667L14.6667 66.3333L14.3333 65.6667z"/>
<path style="fill:#cea78a; stroke:none;" d="M171 66L172 67L171 66z"/>
<path style="fill:#e0bda4; stroke:none;" d="M13 67L13 74L14 74L13 67M172 67L173 68L172 67z"/>
<path style="fill:#cea78a; stroke:none;" d="M172 68L173 69L172 68z"/>
<path style="fill:#e0bda4; stroke:none;" d="M173 70L173 77L174 77L173 70z"/>
<path style="fill:#b07c5f; stroke:none;" d="M14.3333 75.6667L14.6667 76.3333L14.3333 75.6667z"/>
<path style="fill:#cea78a; stroke:none;" d="M14 77L15 78L14 77z"/>
<path style="fill:#b07c5f; stroke:none;" d="M170 77L171 78L170 77M172.333 77.6667L172.667 78.3333L172.333 77.6667z"/>
<path style="fill:#e0bda4; stroke:none;" d="M14 78L15 79L14 78z"/>
<path style="fill:#b07c5f; stroke:none;" d="M15 79L16 80L15 79z"/>
<path style="fill:#cea78a; stroke:none;" d="M172 79L173 80L172 79z"/>
<path style="fill:#e0bda4; stroke:none;" d="M15 80L16 81L15 80M172 80L173 81L172 80z"/>
<path style="fill:#b07c5f; stroke:none;" d="M16 81L17 82L16 81M171 82L172 83L171 82z"/>
<path style="fill:#cea78a; stroke:none;" d="M17 83L18 84L17 83z"/>
<path style="fill:#e0bda4; stroke:none;" d="M171 83L172 84L171 83z"/>
<path style="fill:#cea78a; stroke:none;" d="M18 84L19 85L18 84M19 85L20 86L19 85z"/>
<path style="fill:#b07c5f; stroke:none;" d="M170 85L171 86L170 85z"/>
<path style="fill:#cea78a; stroke:none;" d="M20 86L21 87L20 86z"/>
<path style="fill:#e0bda4; stroke:none;" d="M170 86L171 87L170 86z"/>
<path style="fill:#cea78a; stroke:none;" d="M21 87L22 88L21 87z"/>
<path style="fill:#b07c5f; stroke:none;" d="M169 87L170 88L169 87z"/>
<path style="fill:#e0bda4; stroke:none;" d="M22 88L23 89L22 88z"/>
<path style="fill:#b07c5f; stroke:none;" d="M23 88L24 89L23 88z"/>
<path style="fill:#e0bda4; stroke:none;" d="M169 88L170 89L169 88z"/>
<path style="fill:#cea78a; stroke:none;" d="M24 89L25 90L24 89z"/>
<path style="fill:#e0bda4; stroke:none;" d="M168 89L169 90L168 89z"/>
<path style="fill:#cea78a; stroke:none;" d="M26 90L27 91L26 90M167 90L168 91L167 90M28 91L29 92L28 91z"/>
<path style="fill:#e0bda4; stroke:none;" d="M166 91L167 92L166 91z"/>
<path style="fill:#cea78a; stroke:none;" d="M30 92L31 93L30 92z"/>
<path style="fill:#b07c5f; stroke:none;" d="M164 92L165 93L164 92z"/>
<path style="fill:#e0bda4; stroke:none;" d="M165 92L166 93L165 92M32 93L33 94L32 93z"/>
<path style="fill:#b07c5f; stroke:none;" d="M33 93L34 94L33 93M162 93L163 94L162 93z"/>
<path style="fill:#e0bda4; stroke:none;" d="M163 93L164 94L163 93z"/>
<path style="fill:#cea78a; stroke:none;" d="M35 94L36 95L35 94z"/>
<path style="fill:#b07c5f; stroke:none;" d="M36 94L37 95L36 94M159 94L160 95L159 94z"/>
<path style="fill:#cea78a; stroke:none;" d="M160 94L161 95L160 94z"/>
<path style="fill:#e0bda4; stroke:none;" d="M38 95L39 96L38 95z"/>
<path style="fill:#cea78a; stroke:none;" d="M39 95L40 96L39 95z"/>
<path style="fill:#b07c5f; stroke:none;" d="M40 95L41 96L40 95M58 95L58 96L61 96L58 95z"/>
<path style="fill:#cea78a; stroke:none;" d="M61.6667 95.3333L62.3333 95.6667L61.6667 95.3333z"/>
<path style="fill:#b07c5f; stroke:none;" d="M63 95L63 96L66 96L63 95M154 95L155 96L154 95z"/>
<path style="fill:#cea78a; stroke:none;" d="M155 95L156 96L155 95z"/>
<path style="fill:#e0bda4; stroke:none;" d="M156.667 95.3333L157.333 95.6667L156.667 95.3333M42.6667 96.3333L43.3333 96.6667L42.6667 96.3333z"/>
<path style="fill:#cea78a; stroke:none;" d="M44 96L44 97L47 97L44 96z"/>
<path style="fill:#b07c5f; stroke:none;" d="M47 96L47 97L53 97L47 96z"/>
<path style="fill:#cea78a; stroke:none;" d="M53.6667 96.3333L54.3333 96.6667L53.6667 96.3333z"/>
<path style="fill:#e0bda4; stroke:none;" d="M55.6667 96.3333L56.3333 96.6667L55.6667 96.3333M67 96L68 97L67 96z"/>
<path style="fill:#cea78a; stroke:none;" d="M68 96L69 97L68 96z"/>
<path style="fill:#b07c5f; stroke:none;" d="M69 96L70 97L69 96M121 96L121 97L128 97L121 96M151 96L152 97L151 96z"/>
<path style="fill:#e0bda4; stroke:none;" d="M152 96L153 97L152 96M71 97L72 98L71 97z"/>
<path style="fill:#cea78a; stroke:none;" d="M72 97L73 98L72 97z"/>
<path style="fill:#b07c5f; stroke:none;" d="M73.6667 97.3333L74.3333 97.6667L73.6667 97.3333M89.6667 97.3333L90.3333 97.6667L89.6667 97.3333z"/>
<path style="fill:#cea78a; stroke:none;" d="M91 97L92 98L91 97z"/>
<path style="fill:#e0bda4; stroke:none;" d="M92.6667 97.3333L93.3333 97.6667L92.6667 97.3333M99.6667 97.3333L100.333 97.6667L99.6667 97.3333z"/>
<path style="fill:#cea78a; stroke:none;" d="M101.667 97.3333L102.333 97.6667L101.667 97.3333z"/>
<path style="fill:#b07c5f; stroke:none;" d="M103 97L104 98L103 97M116 97L117 98L116 97z"/>
<path style="fill:#cea78a; stroke:none;" d="M117.667 97.3333L118.333 97.6667L117.667 97.3333z"/>
<path style="fill:#e0bda4; stroke:none;" d="M130 97L131 98L130 97z"/>
<path style="fill:#cea78a; stroke:none;" d="M131 97L132 98L131 97z"/>
<path style="fill:#b07c5f; stroke:none;" d="M132 97L133 98L132 97M148 97L149 98L148 97z"/>
<path style="fill:#e0bda4; stroke:none;" d="M149 97L150 98L149 97M77.6667 98.3333L78.3333 98.6667L77.6667 98.3333z"/>
<path style="fill:#cea78a; stroke:none;" d="M79 98L79 99L86 99L79 98z"/>
<path style="fill:#e0bda4; stroke:none;" d="M86.6667 98.3333L87.3333 98.6667L86.6667 98.3333M106 98L106 99L114 99L106 98M134 98L135 99L134 98z"/>
<path style="fill:#cea78a; stroke:none;" d="M135.667 98.3333L136.333 98.6667L135.667 98.3333z"/>
<path style="fill:#b07c5f; stroke:none;" d="M137 98L137 99L144 99L137 98z"/>
<path style="fill:#cea78a; stroke:none;" d="M144.667 98.3333L145.333 98.6667L144.667 98.3333z"/>
<path style="fill:#e0bda4; stroke:none;" d="M146 98L147 99L146 98z"/>
</svg>
